HIERARCHY
ROOT Hips
{
    OFFSET 0.000000 0.000000 0.000000
    CHANNELS 6 Xposition Yposition Zposition Zrotation Xrotation Yrotation
    JOINT Spine
    {
        OFFSET -0.000000 7.236184 0.000000
        CHANNELS 3 Zrotation Xrotation Yrotation
        JOINT Spine1
        {
            OFFSET -0.000000 20.420147 0.000000
            CHANNELS 3 Zrotation Xrotation Yrotation
            JOINT Neck
            {
                OFFSET -0.000000 20.336288 1.848754
                CHANNELS 3 Zrotation Xrotation Yrotation
                JOINT Head
                {
                    OFFSET -0.000000 12.354461 -1.764923
                    CHANNELS 3 Zrotation Xrotation Yrotation
                    End Site
                    {
                        OFFSET -0.000000 22.061537 0.000000
                    }
                }
            }
            JOINT LeftShoulder
            {
                OFFSET 3.573296 18.396038 -0.314103
                CHANNELS 3 Zrotation Xrotation Yrotation
                JOINT LeftArm
                {
                    OFFSET 10.880760 0.000000 0.000000
                    CHANNELS 3 Zrotation Xrotation Yrotation
                    JOINT LeftForeArm
                    {
                        OFFSET 27.185530 0.000000 0.000000
                        CHANNELS 3 Zrotation Xrotation Yrotation
                        JOINT LeftHand
                        {
                            OFFSET 27.825975 0.000000 0.000000
                            CHANNELS 3 Zrotation Xrotation Yrotation
                            End Site
                            {
                                OFFSET 13.236923 0.000000 0.000000
                            }
                        }
                    }
                }
            }
            JOINT RightShoulder
            {
                OFFSET -3.474926 18.396038 -0.314103
                CHANNELS 3 Zrotation Xrotation Yrotation
                JOINT RightArm
                {
                    OFFSET -10.880760 0.000000 0.000000
                    CHANNELS 3 Zrotation Xrotation Yrotation
                    JOINT RightForeArm
                    {
                        OFFSET -27.185530 0.000000 0.000000
                        CHANNELS 3 Zrotation Xrotation Yrotation
                        JOINT RightHand
                        {
                            OFFSET -27.825975 0.000000 0.000000
                            CHANNELS 3 Zrotation Xrotation Yrotation
                            End Site
                            {
                                OFFSET -13.236923 0.000000 0.000000
                            }
                        }
                    }
                }
            }
        }
    }
    JOINT LeftUpLeg
    {
        OFFSET 8.824615 0.000000 0.000000
        CHANNELS 3 Zrotation Xrotation Yrotation
        JOINT LeftLeg
        {
            OFFSET -0.000000 -35.111282 0.000000
            CHANNELS 3 Zrotation Xrotation Yrotation
            JOINT LeftFoot
            {
                OFFSET -0.000000 -42.324711 0.000000
                CHANNELS 3 Zrotation Xrotation Yrotation
                JOINT LeftToeBase
                {
                    OFFSET -0.000000 -5.735999 13.236923
                    CHANNELS 3 Zrotation Xrotation Yrotation
                    End Site
                    {
                        OFFSET -0.000000 0.000000 3.529846
                    }
                }
            }
        }
    }
    JOINT RightUpLeg
    {
        OFFSET -8.824615 0.000000 0.000000
        CHANNELS 3 Zrotation Xrotation Yrotation
        JOINT RightLeg
        {
            OFFSET -0.000000 -35.111282 0.000000
            CHANNELS 3 Zrotation Xrotation Yrotation
            JOINT RightFoot
            {
                OFFSET -0.000000 -42.324711 0.000000
                CHANNELS 3 Zrotation Xrotation Yrotation
                JOINT RightToeBase
                {
                    OFFSET -0.000000 -5.735999 13.236923
                    CHANNELS 3 Zrotation Xrotation Yrotation
                    End Site
                    {
                        OFFSET -0.000000 0.000000 3.529846
                    }
                }
            }
        }
    }
}
MOTION
Frames:    5
Frame Time:    0.008333
-14.337977    80.432640    111.378242    -2.689594    -8.099692    175.835266    -2.215491    -7.023705    0.423740    -0.434841    2.396953    0.568808    3.585003    9.815660    -0.500358    2.451929    -24.091684    0.112401    -3.510141    16.777246    -1.952367    -45.537674    33.775482    -41.947956    18.760576    -15.454592    -38.739063    33.152126    -11.077368    -7.259634    8.138844    15.708761    -6.736858    43.888054    34.522346    41.265877    -19.819614    -16.602119    36.728634    -29.759567    -10.537012    1.546265    0.452070    -20.612219    -3.677697    -0.015149    34.387424    7.159383    -6.724920    -16.644228    -12.897438    0.128916    -2.257111    -0.143494    -10.680171    -25.268250    -12.884445    21.303970    53.041889    -15.727635    5.348052    -2.810617    -16.650677    -0.707487    -6.142581    0.772051    
-14.450932    80.304268    111.407516    -2.788325    -8.012705    175.693314    -2.204186    -7.039446    0.483080    -0.557085    2.553324    0.631045    3.535280    9.735615    -0.535831    2.441556    -24.193184    0.074443    -3.589178    16.932802    -2.182892    -44.939651    34.850689    -43.176563    18.832815    -15.531746    -38.122715    33.205891    -11.267434    -7.330109    8.181310    15.772488    -6.473430    42.904270    35.840755    42.481644    -19.591946    -17.143343    36.648567    -30.061234    -11.099074    1.206593    0.301974    -20.790373    -3.703253    -0.110956    34.845238    7.416843    -6.700023    -16.794018    -13.002357    0.133422    -2.251183    -0.148507    -10.475612    -25.041449    -12.737201    21.193708    52.781578    -15.810677    5.031546    -3.075953    -16.927139    -0.747776    -6.444416    0.816395    
-14.555272    80.180267    111.438202    -2.877782    -7.934329    175.556778    -2.188225    -7.059300    0.538576    -0.671943    2.707444    0.689466    3.493417    9.660803    -0.570246    2.428993    -24.301891    0.036705    -3.639699    17.054325    -2.419542    -44.269386    35.813354    -44.338188    18.890844    -15.565584    -37.469528    33.246666    -11.425363    -7.403434    8.217264    15.827372    -6.210859    41.944820    36.966301    43.623550    -19.353617    -17.615232    36.555737    -30.340342    -11.604972    0.908798    0.173921    -20.968967    -3.677202    -0.182793    35.283997    7.624992    -6.681286    -16.934217    -13.114543    0.147034    -2.240621    -0.163655    -10.313647    -24.836061    -12.597535    21.105425    52.555763    -15.900807    4.787405    -3.357529    -17.137638    -0.778741    -6.742492    0.850595    
-14.648893    80.065109    111.469521    -2.956325    -7.864420    175.429092    -2.170972    -7.079504    0.587025    -0.774021    2.852580    0.740629    3.462599    9.593450    -0.601319    2.411124    -24.412468    0.000199    -3.661128    17.139738    -2.651448    -43.587990    36.619129    -45.378170    18.923824    -15.544400    -36.797848    33.273933    -11.539752    -7.481201    8.246745    15.875637    -5.961140    41.074009    37.866787    44.636379    -19.114388    -18.000483    36.443676    -30.598249    -12.036504    0.658509    0.070850    -21.138752    -3.603519    -0.230918    35.688087    7.779146    -6.668301    -17.059969    -13.228827    0.168457    -2.227046    -0.187495    -10.202830    -24.660975    -12.471934    21.047802    52.377674    -15.991590    4.627857    -3.630416    -17.271391    -0.800959    -7.019701    0.875240    
-14.732337    79.959740    111.501648    -3.022544    -7.802455    175.310242    -2.153160    -7.098630    0.626860    -0.861018    2.986720    0.782870    3.443542    9.533308    -0.627964    2.387298    -24.522968    -0.034388    -3.655104    17.192793    -2.873119    -42.938263    37.258289    -46.273857    18.925795    -15.465521    -36.108994    33.289692    -11.609324    -7.563788    8.271363    15.918946    -5.730187    40.316757    38.553928    45.501343    -18.874880    -18.304932    36.304688    -30.844818    -12.398965    0.448088    -0.005913    -21.297579    -3.485552    -0.256957    36.055103    7.880601    -6.661854    -17.170574    -13.344097    0.195479    -2.212500    -0.217565    -10.143630    -24.519859    -12.360656    21.028385    52.250660    -16.082062    4.554296    -3.877933    -17.327024    -0.814991    -7.270881    0.890924    
